<?xml version="1.0" encoding="iso-8859-1"?>
<!-- Generator: Adobe Illustrator 19.0.0, SVG Export Plug-In . SVG Version: 6.00 Build 0)  -->
<svg xmlns="http://www.w3.org/2000/svg" xmlns:xlink="http://www.w3.org/1999/xlink" version="1.1" id="Capa_1" x="0px" y="0px" viewBox="0 0 512 512" style="enable-background:new 0 0 512 512;" xml:space="preserve" width="512px" height="512px">
<g>
	<g>
		<path d="M468.82,71.975H187.196c-9.936-6.167-22.075-9.393-35.696-9.393c-17.853,0-33.172,5.525-44.302,15.976    c-12.162,11.421-18.59,28.265-18.59,48.711c0,1.735,0.391,42.163,33.356,80.417v11.133c0,9.824,7.993,17.817,17.817,17.817h3.421    v50.103c0,4.141,3.356,7.496,7.495,7.496c4.14,0,7.496-3.355,7.496-7.496v-50.103h4.948c9.825,0,17.817-7.993,17.817-17.817    v-11.043c33.042-38.28,33.433-78.771,33.433-80.507c0-15.904-3.907-29.615-11.359-40.303h258.293V357.52    c0,4.141,3.356,7.495,7.495,7.495s7.496-3.355,7.496-7.495V79.471C476.316,75.33,472.96,71.975,468.82,71.975z M165.966,218.818    c0,1.559-1.268,2.826-2.826,2.826h-23.359c-1.559,0-2.826-1.267-2.826-2.826V212.4h5.426c0.004,0,0.007,0,0.011,0h18.324    c0.005,0,0.011,0.001,0.016,0.001c0.007,0,0.014-0.001,0.021-0.001h5.214V218.818z M144.155,156.853h14.686l-4.783,40.556h-5.12    L144.155,156.853z M170.102,197.409h-0.948l5.564-47.173c0.251-2.127-0.42-4.258-1.842-5.859c-1.422-1.6-3.461-2.516-5.602-2.516    h-31.549c-2.141,0-4.18,0.915-5.602,2.516c-1.422,1.601-2.093,3.732-1.842,5.859l5.564,47.173h-0.948    c-28.761-33.75-29.296-69.791-29.297-70.141c0-16.432,4.663-29.145,13.861-37.782c8.299-7.794,20.07-11.914,34.04-11.914    c13.97,0,25.74,4.12,34.04,11.914c9.198,8.638,13.861,21.349,13.861,37.782C199.399,127.636,199.059,163.455,170.102,197.409z" fill="#f5f5f5"/>
	</g>
</g>
<g>
	<g>
		<path d="M468.82,380.005c-4.14,0-7.495,3.355-7.495,7.495v34.552h-67.459c-4.14,0-7.496,3.355-7.496,7.495v67.46H158.192V316.721    c0-4.14-3.356-7.496-7.496-7.496s-7.496,3.356-7.496,7.496v187.784c0,4.141,3.356,7.496,7.496,7.496h243.169    c0.02,0,0.04-0.003,0.061-0.003c0.225-0.002,0.45-0.011,0.673-0.033c0.106-0.01,0.209-0.031,0.314-0.046    c0.137-0.019,0.275-0.034,0.411-0.061c0.106-0.021,0.21-0.053,0.315-0.078c0.132-0.032,0.265-0.06,0.396-0.099    c0.096-0.029,0.189-0.068,0.284-0.101c0.136-0.047,0.273-0.091,0.406-0.145c0.083-0.034,0.162-0.077,0.244-0.114    c0.141-0.064,0.283-0.125,0.42-0.198c0.071-0.038,0.138-0.083,0.207-0.123c0.143-0.082,0.287-0.163,0.425-0.255    c0.061-0.04,0.117-0.088,0.176-0.13c0.141-0.1,0.283-0.199,0.418-0.31c0.063-0.052,0.121-0.111,0.183-0.165    c0.125-0.109,0.251-0.216,0.369-0.334l74.954-74.955c0.006-0.006,0.011-0.014,0.017-0.02c0.228-0.229,0.434-0.476,0.628-0.73    c0.054-0.07,0.106-0.141,0.158-0.213c0.186-0.262,0.362-0.531,0.512-0.813c0.011-0.021,0.02-0.044,0.031-0.065    c0.139-0.268,0.258-0.545,0.364-0.827c0.03-0.08,0.059-0.159,0.086-0.24c0.103-0.304,0.193-0.612,0.256-0.926    c0.001-0.007,0.002-0.013,0.003-0.02c0.061-0.309,0.095-0.624,0.117-0.939c0.006-0.085,0.01-0.169,0.013-0.255    c0.003-0.084,0.012-0.168,0.012-0.253v-42.047C476.316,383.361,472.96,380.005,468.82,380.005z M401.362,486.408v-49.363h49.363    L401.362,486.408z" fill="#f5f5f5"/>
	</g>
</g>
<g>
	<g>
		<path d="M151.499,0c-5.52,0-9.994,4.474-9.994,9.994v20.953c0,5.519,4.474,9.994,9.994,9.994c5.52,0,9.994-4.475,9.994-9.994    V9.994C161.493,4.474,157.019,0,151.499,0z" fill="#f5f5f5"/>
	</g>
</g>
<g>
	<g>
		<path d="M234.599,36.036c-3.996-3.809-10.322-3.656-14.13,0.339L206.234,51.31c-3.809,3.996-3.656,10.322,0.339,14.13    c1.936,1.845,4.416,2.76,6.894,2.76c2.638,0,5.272-1.038,7.236-3.099l14.235-14.935C238.747,46.17,238.594,39.844,234.599,36.036z    " fill="#f5f5f5"/>
	</g>
</g>
<g>
	<g>
		<path d="M257.319,112.517h-20.296c-5.52,0-9.994,4.475-9.994,9.994c0,5.519,4.474,9.994,9.994,9.994h20.296    c5.52,0,9.994-4.475,9.994-9.994C267.313,116.992,262.838,112.517,257.319,112.517z" fill="#f5f5f5"/>
	</g>
</g>
<g>
	<g>
		<path d="M96.764,51.31L82.528,36.375c-3.809-3.995-10.134-4.146-14.13-0.339c-3.995,3.808-4.148,10.134-0.339,14.13l14.235,14.935    c1.964,2.061,4.597,3.099,7.236,3.099c2.477,0,4.959-0.915,6.894-2.76C100.421,61.632,100.572,55.306,96.764,51.31z" fill="#f5f5f5"/>
	</g>
</g>
<g>
	<g>
		<path d="M65.974,112.517H45.678c-5.52,0-9.994,4.475-9.994,9.994c0,5.519,4.474,9.994,9.994,9.994h20.296    c5.52,0,9.994-4.475,9.994-9.994C75.968,116.992,71.494,112.517,65.974,112.517z" fill="#f5f5f5"/>
	</g>
</g>
<g>
	<g>
		<path d="M378.819,183.678l20.301-25.548c2.563-3.224,2.044-7.911-1.161-10.497c-23.832-19.229-52.64-29.532-83.309-29.794    c-2.006,0.018-3.922,0.766-5.342,2.173c-1.419,1.407-2.218,3.324-2.218,5.323v17.514c-21.833,1.239-42.453,8.804-59.97,22.108    c-3.296,2.504-3.94,7.206-1.436,10.503c2.501,3.295,7.204,3.941,10.503,1.435c14.888-11.306,32.373-17.829,50.904-19.049v47.105    c-20.961,2.805-37.681,19.209-40.963,40.017H226.09h-7.148c1.339-17.221,7.294-33.582,17.422-47.702    c2.413-3.364,1.641-8.047-1.723-10.46c-3.363-2.414-8.046-1.642-10.459,1.722c-13.425,18.719-20.521,40.829-20.521,63.936    c0,4.141,3.356,7.496,7.496,7.496h7.733c3.834,48.829,44.792,87.389,94.589,87.389c52.32,0,94.884-42.566,94.884-94.884    C408.363,226.241,397.678,201.567,378.819,183.678z M322.081,150.154v-17.029c21.951,1.536,42.628,8.941,60.535,21.678    l-44.795,56.37c-4.853-2.852-10.195-4.84-15.74-5.854V150.154z M313.479,219.517c0.181,0,0.36,0.008,0.539,0.014l0.349,0.012    c0.004,0,0.009-0.001,0.013,0c0.001,0,0.002,0,0.004,0c7.456,0.201,14.418,2.818,20.135,7.569    c7.566,6.289,11.906,15.529,11.906,25.35c0,18.167-14.779,32.946-32.945,32.946s-32.945-14.779-32.945-32.946    C280.534,234.296,295.313,219.517,313.479,219.517z M313.479,332.355c-41.526,0-75.754-31.846-79.544-72.398h32.193    c3.608,22.885,23.468,40.442,47.352,40.442c26.432,0,47.936-21.505,47.936-47.937c0-11.814-4.312-23.048-12.024-31.753    l20.062-25.246c15.285,14.984,23.919,35.371,23.919,56.999C393.372,296.516,357.532,332.355,313.479,332.355z" fill="#f5f5f5"/>
	</g>
</g>
<g>
	<g>
		<path d="M375.012,400.295H230.277c-4.14,0-7.496,3.355-7.496,7.496c0,4.139,3.356,7.495,7.496,7.495h144.736    c4.139,0,7.495-3.355,7.495-7.495C382.508,403.65,379.152,400.295,375.012,400.295z" fill="#f5f5f5"/>
	</g>
</g>
<g>
	<g>
		<path d="M375.012,365.014H230.277c-4.14,0-7.496,3.355-7.496,7.496s3.356,7.496,7.496,7.496h144.736    c4.139,0,7.495-3.355,7.495-7.496C382.508,368.37,379.152,365.014,375.012,365.014z" fill="#f5f5f5"/>
	</g>
</g>
<g>
	<g>
		<path d="M330.068,435.576h-99.791c-4.14,0-7.496,3.355-7.496,7.496s3.356,7.496,7.496,7.496h99.791    c4.14,0,7.495-3.355,7.495-7.496S334.208,435.576,330.068,435.576z" fill="#f5f5f5"/>
	</g>
</g>
<g>
</g>
<g>
</g>
<g>
</g>
<g>
</g>
<g>
</g>
<g>
</g>
<g>
</g>
<g>
</g>
<g>
</g>
<g>
</g>
<g>
</g>
<g>
</g>
<g>
</g>
<g>
</g>
<g>
</g>
</svg>
